<svg width="1024" height="111" viewBox="0 0 1024 111" fill="none" xmlns="http://www.w3.org/2000/svg">
<path d="M34.9679 5.12531H6.59174C4.81859 5.12531 3.2124 5.79382 1.9401 7.05658C0.66781 8.31934 0 9.9135 0 11.6734V98.375C0 100.135 0.673567 101.735 1.9401 102.986C3.2124 104.249 4.81859 104.917 6.59174 104.917H34.9161V8.52503L34.9621 8.34219V5.11959L34.9679 5.12531Z" fill="#4F3E98"/>
<path d="M34.9161 8.13078C34.9161 8.10221 34.9391 8.07364 34.9449 8.04507H9.53932C8.54336 8.04507 7.69133 8.40504 6.9717 9.11927C6.25208 9.83922 5.88939 10.6849 5.88939 11.6676V98.3693C5.88939 99.3521 6.24632 100.203 6.9717 100.918C7.69133 101.632 8.54912 101.992 9.53932 101.992H34.9218V8.13078H34.9161Z" fill="#5DDEE8"/>
<path d="M131.179 104.912C129.405 104.912 127.793 104.243 126.527 102.98C125.26 101.729 124.587 100.129 124.587 98.3693V11.6676C124.587 9.90778 125.26 8.31362 126.533 7.05087C127.805 5.78811 129.411 5.11959 131.184 5.11959H160.395C162.163 5.11959 163.769 5.78811 165.041 7.04515C166.319 8.31362 166.987 9.9135 166.987 11.6619V71.5543H210.153C211.92 71.5543 213.526 72.2228 214.799 73.4799C216.077 74.7483 216.745 76.3425 216.745 78.0966V98.3636C216.745 100.123 216.071 101.718 214.799 102.98C213.526 104.243 211.92 104.912 210.147 104.912H131.173H131.179Z" fill="#4F3E98"/>
<path d="M167.557 74.4798H213.67C214.661 74.4798 215.518 74.8397 216.238 75.554C216.958 76.2739 217.32 77.1196 217.32 78.1023V98.3693C217.32 99.3521 216.958 100.203 216.238 100.918C215.518 101.632 214.661 101.992 213.67 101.992H134.696C133.706 101.992 132.848 101.638 132.128 100.918C131.403 100.203 131.046 99.3521 131.046 98.3693V11.6676C131.046 10.6849 131.403 9.8335 132.128 9.11927C132.848 8.40504 133.706 8.04507 134.696 8.04507H163.907C164.897 8.04507 165.755 8.40504 166.475 9.11927C167.194 9.83922 167.557 10.6849 167.557 11.6676V74.4798Z" fill="#5DDEE8"/>
<path d="M238.143 104.912C236.37 104.912 234.758 104.243 233.492 102.98C232.225 101.729 231.552 100.129 231.552 98.3693V78.1023C231.552 76.3425 232.225 74.7483 233.497 73.4856C234.77 72.2228 236.376 71.5543 238.149 71.5543H259.951V38.4769H238.149C236.376 38.4769 234.764 37.8084 233.497 36.5457C232.231 35.2886 231.557 33.6945 231.557 31.9346V11.6676C231.557 9.90778 232.231 8.31362 233.503 7.05087C234.775 5.78811 236.382 5.11959 238.155 5.11959H323.888C325.655 5.11959 327.261 5.78811 328.534 7.04515C329.812 8.31362 330.48 9.9135 330.48 11.6619V31.9289C330.48 33.6887 329.806 35.2829 328.534 36.5457C327.261 37.8084 325.649 38.4769 323.882 38.4769H302.351V71.5543H323.882C325.649 71.5543 327.256 72.2228 328.528 73.4799C329.806 74.7483 330.474 76.3482 330.474 78.0966V98.3636C330.474 100.123 329.8 101.718 328.528 102.98C327.256 104.243 325.649 104.912 323.876 104.912H238.143Z" fill="#4F3E98"/>
<path d="M327.394 35.5572H302.921V74.4798H327.394C328.384 74.4798 329.242 74.8397 329.961 75.554C330.681 76.2739 331.044 77.1196 331.044 78.1023V98.3693C331.044 99.3521 330.681 100.203 329.961 100.918C329.236 101.632 328.384 101.992 327.394 101.992H241.661C240.671 101.992 239.813 101.638 239.093 100.918C238.368 100.203 238.011 99.3521 238.011 98.3693V78.1023C238.011 77.1196 238.368 76.2682 239.093 75.554C239.819 74.8397 240.671 74.4798 241.661 74.4798H266.41V35.5572H241.661C240.671 35.5572 239.813 35.2029 239.093 34.483C238.368 33.7687 238.011 32.9174 238.011 31.9346V11.6676C238.011 10.6849 238.368 9.8335 239.093 9.11927C239.819 8.40504 240.671 8.04507 241.661 8.04507H327.394C328.384 8.04507 329.242 8.40504 329.961 9.11927C330.681 9.83922 331.044 10.6849 331.044 11.6676V31.9346C331.044 32.9174 330.681 33.7687 329.961 34.483C329.236 35.1972 328.384 35.5572 327.394 35.5572Z" fill="#5DDEE8"/>
<path d="M382.022 104.912C380.249 104.912 378.637 104.243 377.37 102.98C376.104 101.729 375.43 100.129 375.43 98.3693V39.8197H349.299C347.526 39.8197 345.914 39.1512 344.647 37.8884C343.381 36.6314 342.707 35.0372 342.707 33.2774V11.6676C342.707 9.90778 343.381 8.31362 344.653 7.05087C345.925 5.78811 347.532 5.11959 349.305 5.11959H442.608C444.376 5.11959 445.982 5.78811 447.254 7.04515C448.532 8.31362 449.2 9.90778 449.2 11.6619V33.2716C449.2 35.0315 448.526 36.6257 447.254 37.8884C445.982 39.1512 444.376 39.8197 442.602 39.8197H416.472V98.3693C416.472 100.129 415.798 101.723 414.526 102.986C413.253 104.249 411.647 104.912 409.874 104.912H382.016H382.022Z" fill="#4F3E98"/>
<path d="M352.817 8.04507H446.12C447.11 8.04507 447.968 8.40504 448.688 9.11927C449.407 9.83922 449.77 10.6849 449.77 11.6676V33.2773C449.77 34.2601 449.407 35.1115 448.688 35.8257C447.962 36.5399 447.11 36.8999 446.12 36.8999H417.047V98.3693C417.047 99.3521 416.685 100.203 415.965 100.918C415.24 101.632 414.388 101.992 413.397 101.992H385.539C384.549 101.992 383.691 101.638 382.972 100.918C382.246 100.203 381.889 99.3521 381.889 98.3693V36.8999H352.817C351.826 36.8999 350.969 36.5457 350.249 35.8257C349.524 35.1115 349.167 34.2601 349.167 33.2773V11.6676C349.167 10.6849 349.524 9.8335 350.249 9.11927C350.974 8.40504 351.826 8.04507 352.817 8.04507Z" fill="#5DDEE8"/>
<path d="M463.938 104.912C462.165 104.912 460.553 104.243 459.28 102.98C458.014 101.729 457.34 100.129 457.34 98.3693V79.0451C457.34 75.4054 458.981 73.2856 460.392 72.1314L497.467 38.4769H466.776C465.003 38.4769 463.391 37.8084 462.124 36.5457C460.858 35.2886 460.184 33.6945 460.184 31.9346V11.6676C460.184 9.90778 460.858 8.31362 462.13 7.05087C463.402 5.78811 465.009 5.11959 466.782 5.11959H547.915C549.682 5.11959 551.294 5.78811 552.567 7.05087C553.839 8.31934 554.512 9.9135 554.512 11.6676V30.8604C554.512 33.5402 553.574 35.8143 551.807 37.437L515.071 71.56H550.759C552.526 71.56 554.133 72.2285 555.405 73.4856C556.683 74.754 557.351 76.3482 557.351 78.1023V98.3693C557.351 100.129 556.677 101.723 555.405 102.986C554.133 104.249 552.526 104.912 550.753 104.912H463.938Z" fill="#4F3E98"/>
<path d="M554.271 74.4798C555.261 74.4798 556.119 74.8397 556.838 75.554C557.558 76.2739 557.921 77.1196 557.921 78.1023V98.3693C557.921 99.3521 557.558 100.203 556.838 100.918C556.113 101.632 555.261 101.992 554.271 101.992H467.455C466.459 101.992 465.607 101.638 464.888 100.918C464.162 100.203 463.805 99.3521 463.805 98.3693V79.0451C463.805 76.9881 464.479 75.4226 465.832 74.3483L508.56 35.5629H470.294C469.303 35.5629 468.446 35.2086 467.726 34.4887C467.001 33.7744 466.644 32.9231 466.644 31.9403V11.6676C466.644 10.6849 467.001 9.8335 467.726 9.11927C468.451 8.40504 469.303 8.04507 470.294 8.04507H551.427C552.417 8.04507 553.275 8.40504 553.994 9.11927C554.714 9.83922 555.077 10.6849 555.077 11.6676V30.8604C555.077 32.7402 554.489 34.2144 553.315 35.2886L511.122 74.4798H554.259H554.271Z" fill="#5DDEE8"/>
<path d="M619.48 110.277C610.246 110.277 601.697 108.734 594.063 105.683C586.205 102.552 579.728 97.3294 574.8 90.17C569.832 82.9477 567.31 74.0284 567.31 63.6464V46.6249C567.31 36.2485 569.826 27.3064 574.794 20.0384C584.005 6.73661 599.4 0 620.557 0C629.019 0 636.78 1.1999 643.619 3.57114C650.545 5.97095 656.209 9.18784 660.458 13.1361C669.048 21.2269 673.394 30.369 673.394 40.3282C673.394 42.0652 672.79 43.6365 671.638 44.8764C670.498 46.1049 669.059 46.7506 667.476 46.7506H638.265C636.1 46.7506 633.055 45.7963 630.861 41.2596C629.883 39.2369 628.685 37.7056 627.309 36.7056C626.411 36.06 624.448 35.2829 620.211 35.2829C616.872 35.2829 614.195 36.1 612.249 37.7056C610.511 39.1454 609.699 41.1281 609.699 43.9508V66.3261C609.699 69.1488 610.511 71.1315 612.249 72.5714C614.195 74.1827 616.872 74.994 620.211 74.994C624.454 74.994 626.411 74.2169 627.309 73.5713C628.685 72.5771 629.883 71.04 630.861 69.0173C633.055 64.4806 636.1 63.5264 638.265 63.5264H667.476C669.059 63.5264 670.498 64.172 671.632 65.3948C672.784 66.6347 673.394 68.206 673.394 69.943C673.394 79.9022 669.048 89.05 660.47 97.1237C656.204 101.089 650.539 104.306 643.613 106.706C636.774 109.071 628.651 110.277 619.468 110.277H619.48Z" fill="#4F3E98"/>
<path d="M610.286 43.9508V66.3261C610.286 70.1487 611.524 73.0856 614.005 75.1369C616.481 77.1881 619.727 78.2109 623.74 78.2109C627.753 78.2109 630.66 77.5595 632.462 76.2511C634.264 74.9483 635.772 73.0342 636.993 70.5201C638.207 68.006 639.808 66.7433 641.794 66.7433H670.999C671.811 66.7433 672.508 67.0575 673.095 67.6918C673.682 68.3203 673.976 69.0745 673.976 69.943C673.976 78.9651 670.009 87.2159 662.076 94.6839C658.109 98.375 652.836 101.358 646.256 103.637C639.675 105.917 631.921 107.054 622.997 107.054C614.074 107.054 605.934 105.592 598.588 102.655C591.242 99.7235 585.266 94.9181 580.672 88.233C576.072 81.5535 573.775 73.3542 573.775 63.6464V46.6249C573.775 36.9171 576.072 28.6949 580.672 21.964C589.325 9.4621 603.798 3.21689 624.08 3.21689C632.284 3.21689 639.675 4.35965 646.256 6.63947C652.836 8.91929 658.109 11.9019 662.076 15.5873C670.009 23.0553 673.976 31.3004 673.976 40.3282C673.976 41.2024 673.682 41.9509 673.095 42.5852C672.508 43.2137 671.811 43.528 670.999 43.528H641.794C639.808 43.528 638.207 42.2709 636.993 39.7511C635.778 37.2313 634.264 35.3229 632.462 34.0201C630.66 32.7174 627.747 32.0603 623.74 32.0603C619.733 32.0603 616.481 33.0888 614.005 35.1343C611.524 37.1856 610.286 40.1225 610.286 43.9451V43.9508Z" fill="#B784FF"/>
<path d="M820.353 104.912C818.579 104.912 816.967 104.243 815.701 102.98C814.434 101.729 813.761 100.129 813.761 98.3693V11.6676C813.761 9.90778 814.434 8.31362 815.707 7.05087C816.979 5.78811 818.585 5.11959 820.358 5.11959H863.495C873.703 5.11959 882.724 6.4852 890.317 9.18213C898.152 11.9648 904.583 16.7415 909.425 23.3696C914.283 30.0262 916.747 38.3684 916.747 48.1676V61.8579C916.747 77.1367 911.399 88.4729 900.847 95.5524C891.457 101.763 878.895 104.912 863.501 104.912H820.364H820.353ZM864.169 72.897C867.686 72.897 870.45 72.1028 872.378 70.5372C874.152 69.0974 875.015 67.0461 875.015 64.2749V45.7564C875.015 42.9852 874.152 40.9339 872.378 39.494C870.45 37.9284 867.686 37.1342 864.169 37.1342H854.808V72.897H864.169Z" fill="#4F3E98"/>
<path d="M824.452 8.04507H867.589C877.502 8.04507 886.115 9.34211 893.414 11.9362C900.714 14.5303 906.621 18.9128 911.129 25.0894C915.636 31.2604 917.887 38.9569 917.887 48.1733V61.8636C917.887 76.1825 913.017 86.6045 903.282 93.1354C894.359 99.0435 882.459 101.992 867.583 101.992H824.446C823.456 101.992 822.598 101.638 821.878 100.918C821.153 100.203 820.796 99.3521 820.796 98.3693V11.6676C820.796 10.6849 821.153 9.8335 821.878 9.11927C822.598 8.40504 823.456 8.04507 824.446 8.04507H824.452ZM855.959 34.2144V75.8225H868.268C872.505 75.8225 875.861 74.8169 878.343 72.8056C880.818 70.7944 882.062 67.9546 882.062 64.2806V45.7621C882.062 42.0938 880.824 39.254 878.343 37.237C875.861 35.2258 872.505 34.2201 868.268 34.2201H855.959V34.2144Z" fill="#B784FF"/>
<path d="M931.209 104.912C929.436 104.912 927.83 104.243 926.557 102.98C925.291 101.729 924.617 100.129 924.617 98.3693V11.6676C924.617 9.90778 925.291 8.31362 926.563 7.05087C927.835 5.78811 929.442 5.11959 931.215 5.11959H1015.32C1017.09 5.11959 1018.7 5.78811 1019.97 7.04515C1021.25 8.31362 1021.92 9.90778 1021.92 11.6619V30.5861C1021.92 32.346 1021.24 33.9402 1019.97 35.2029C1018.7 36.4657 1017.09 37.1342 1015.32 37.1342H965.659V39.7454H1007.88C1009.65 39.7454 1011.25 40.4139 1012.53 41.671C1013.8 42.9451 1014.47 44.5393 1014.47 46.2877V63.7378C1014.47 65.4919 1013.8 67.0918 1012.53 68.3546C1011.25 69.6173 1009.65 70.2858 1007.87 70.2858H965.653V72.897H1016.67C1018.43 72.897 1020.05 73.5656 1021.31 74.8226C1022.58 76.0911 1023.26 77.6852 1023.26 79.4394V98.3636C1023.26 100.123 1022.58 101.718 1021.31 102.98C1020.05 104.243 1018.43 104.906 1016.67 104.906H931.203L931.209 104.912Z" fill="#4F3E98"/>
<path d="M966.396 75.8225H1020.35C1021.34 75.8225 1022.2 76.1825 1022.92 76.8967C1023.64 77.6167 1024 78.4623 1024 79.4451V98.3693C1024 99.3521 1023.64 100.203 1022.92 100.918C1022.2 101.632 1021.34 101.992 1020.35 101.992H934.888C933.898 101.992 933.04 101.638 932.32 100.918C931.595 100.203 931.238 99.3521 931.238 98.3693V11.6676C931.238 10.6849 931.595 9.8335 932.32 9.11927C933.045 8.40504 933.898 8.04507 934.888 8.04507H1019C1019.99 8.04507 1020.85 8.40504 1021.56 9.11927C1022.28 9.83922 1022.65 10.6849 1022.65 11.6676V30.5918C1022.65 31.5746 1022.28 32.426 1021.56 33.1402C1020.85 33.8544 1019.99 34.2144 1019 34.2144H966.396V42.6709H1011.56C1012.55 42.6709 1013.41 43.0309 1014.13 43.7451C1014.85 44.465 1015.21 45.3107 1015.21 46.2934V63.7435C1015.21 64.7263 1014.85 65.5776 1014.13 66.2919C1013.41 67.0118 1012.55 67.3661 1011.56 67.3661H966.396V75.8225Z" fill="#B784FF"/>
<path d="M48.1053 105.386C47.1094 105.386 46.1134 105.38 45.1175 105.369L42.2102 105.34L42.1756 84.9761L44.9966 84.8561C48.3932 84.7075 51.6977 84.4733 54.8122 84.1533C55.5088 84.0847 56.3724 83.9933 56.8272 83.7419C57.5583 83.3419 57.9958 81.9877 58.0592 79.9251C58.0995 78.6909 58.0764 77.4395 58.0592 76.1196C57.9958 72.1142 57.9325 67.9717 59.5214 63.9206C60.8225 60.5952 63.1771 57.7383 66.1765 55.6698C64.1903 54.2528 62.492 52.3044 61.2715 49.9389C58.8248 45.2135 58.2261 40.0482 57.9498 35.1686C57.898 34.2487 57.9383 33.2602 57.9843 32.2146C58.0822 29.9748 58.2146 26.9007 57.0402 26.2779C55.3822 25.398 53.0794 25.8894 51.2832 25.9579C48.5141 26.0551 45.7392 26.1236 42.9701 26.2151L42.9356 5.94238C50.5693 5.19959 58.2031 5.54242 65.8426 5.8681C71.9047 6.12523 78.1222 7.42798 83.3438 10.6163C85.8711 12.159 87.6731 13.8789 88.8475 15.8616C89.9759 17.77 90.4594 19.827 90.8164 21.6097C91.5418 25.1923 92.0311 28.8606 92.2614 32.506C92.2902 32.9174 92.3132 33.3288 92.3362 33.7402C92.4629 35.94 92.578 38.0198 93.1652 39.8882C94.4778 44.0536 99.3252 45.9106 108.882 45.9106C109.947 45.9106 110.977 45.8935 111.956 45.8706L114.961 45.8021C114.973 51.4359 114.978 57.0754 114.99 62.7093C111.219 62.8636 107.529 63.7035 103.827 64.3892C99.8376 65.1262 97.2066 65.9605 94.7081 68.2231C93.2573 69.543 92.8198 71.6914 92.7104 73.2627C92.6183 74.6169 92.6989 76.0225 92.7853 77.5138C92.8486 78.5652 92.9119 79.6508 92.9119 80.7593C92.9234 87.2045 91.7145 95.1753 82.1694 99.6149C71.2369 104.7 58.8076 105.386 48.0881 105.386H48.1053Z" fill="#4F3E98"/>
<path d="M115.548 48.7904C107.776 48.9732 96.464 48.9561 93.8849 40.7625C93.0674 38.1627 93.0271 35.4086 92.8544 32.6945C92.6298 29.1691 92.1635 25.6551 91.4612 22.1868C91.1215 20.5184 90.7185 18.8271 89.8377 17.3415C88.7899 15.5759 87.1262 14.1989 85.33 13.1018C79.6939 9.66209 72.7452 8.73073 66.0383 8.67931C60.788 8.63931 54.8468 8.06221 49.4122 8.58789L49.4352 23.2324C51.7841 23.181 54.1214 23.1239 56.4933 22.9296C58.3528 22.7753 60.3159 22.8382 61.9509 23.701C65.6066 25.6322 64.2249 31.6546 64.4149 35.0029C64.6797 39.6368 65.2324 44.385 67.42 48.6018C69.4004 52.4244 73.2864 55.487 77.9495 55.3384C72.5034 56.3612 67.7424 60.0066 65.7908 64.972C63.9313 69.7087 64.6854 74.9483 64.53 80.0051C64.4552 82.3763 63.9428 85.1018 61.7724 86.2903C60.834 86.8045 59.7229 86.9359 58.6406 87.0445C55.3188 87.3873 51.9855 87.6159 48.6523 87.7587L48.6753 102.438C60.978 102.563 73.5051 102.055 84.4607 96.958C91.6339 93.6211 93.5279 88.073 93.5106 80.7536C93.5106 78.1823 93.1364 75.6168 93.3092 73.0513C93.4819 70.4858 94.2936 67.8346 96.2567 66.0519C99.354 63.2407 102.647 62.275 106.821 61.5037C108.939 61.1094 111.064 60.7152 113.182 60.3266C113.971 60.1781 114.777 60.0409 115.577 59.9838L115.56 48.7847L115.548 48.7904Z" fill="#5DDEE8"/>
<path d="M737.251 108.814C737.999 108.814 740.279 108.814 741.292 106.751C741.966 105.392 741.862 103.42 740.158 102.032C731.189 93.9754 724.556 86.1417 720.446 78.7537C716.433 71.5314 714.395 64.2177 714.395 57.0126C714.395 49.8075 716.456 42.5852 720.521 35.3343C724.7 27.8835 731.332 20.0041 740.233 11.9191C742.121 10.2106 741.753 8.38219 741.505 7.67367C740.941 6.03952 739.502 5.21101 737.245 5.21101H724.487C722.887 5.21101 721.396 5.77097 720.175 6.82231C718.218 8.51361 715.852 10.0621 713.342 11.6962C711.16 13.119 708.897 14.5931 706.865 16.2158C702.899 19.3813 697.804 23.6153 693.515 28.312C678.996 44.2365 679.307 65.0462 694.344 83.9705C700.302 91.4727 708.794 99.1007 720.296 107.3C721.494 108.289 722.933 108.808 724.482 108.808H737.239L737.251 108.814Z" fill="#4F3E98"/>
<path d="M700.285 81.9249C687.504 65.8805 684.77 46.4534 699.312 30.5404C703.083 26.415 707.602 22.5468 712.34 18.7756C716.52 15.4502 721.856 12.6847 725.777 9.30212C726.468 8.70788 727.274 8.40504 728.195 8.40504H740.981C742.478 8.40504 742.823 8.77073 742.017 9.49639C732.8 17.8443 726.007 25.9179 721.626 33.7002C717.251 41.4881 715.057 49.2589 715.057 57.0126C715.057 64.8348 717.216 72.6171 721.54 80.3707C725.857 88.1244 732.685 96.1752 742.017 104.529C742.363 104.792 742.478 105.043 742.363 105.272C742.248 105.506 741.787 105.62 740.981 105.62H728.195C727.274 105.62 726.468 105.323 725.777 104.723C715.639 97.5236 706.716 89.9928 700.285 81.9135V81.9249Z" fill="#B784FF"/>
<path d="M751.902 108.814C751.154 108.814 748.874 108.814 747.861 106.751C747.187 105.392 747.291 103.42 748.995 102.032C757.964 93.9754 764.596 86.1417 768.707 78.7537C772.719 71.5314 774.757 64.2177 774.757 57.0126C774.757 49.8075 772.696 42.5852 768.632 35.3343C764.452 27.8835 757.82 20.0041 748.92 11.9191C747.032 10.2106 747.4 8.38219 747.648 7.67367C748.212 6.03952 749.651 5.21101 751.908 5.21101H764.665C766.266 5.21101 767.757 5.77097 768.977 6.82231C770.935 8.51361 773.301 10.0621 775.811 11.6962C777.993 13.119 780.255 14.5931 782.287 16.2158C786.254 19.3813 791.349 23.6153 795.638 28.312C810.157 44.2365 809.846 65.0462 794.809 83.9705C788.85 91.4727 780.359 99.1007 768.856 107.3C767.659 108.289 766.22 108.808 764.671 108.808H751.914L751.902 108.814Z" fill="#4F3E98"/>
<path d="M763.37 104.729C762.679 105.323 761.873 105.626 760.952 105.626H748.166C747.36 105.626 746.899 105.512 746.784 105.277C746.669 105.043 746.784 104.797 747.13 104.535C756.462 96.1866 763.289 88.1301 767.607 80.3764C771.925 72.6228 774.089 64.8348 774.089 57.0183C774.089 49.2646 771.902 41.4938 767.521 33.7059C763.14 25.9179 756.346 17.85 747.13 9.5021C746.324 8.77073 746.669 8.41076 748.166 8.41076H760.952C761.873 8.41076 762.679 8.70788 763.37 9.30783C767.29 12.6904 772.627 15.4559 776.807 18.7814C781.545 22.5525 786.064 26.4265 789.835 30.5461C804.383 46.4592 801.648 65.8862 788.862 81.9306C782.431 90.0042 773.502 97.5408 763.37 104.74V104.729Z" fill="#B784FF"/>
</svg>
