<svg version="1.1" viewBox="0.0 0.0 960.0 960.0" fill="none" stroke="none" stroke-linecap="square" stroke-miterlimit="10" xmlns:xlink="http://www.w3.org/1999/xlink" xmlns="http://www.w3.org/2000/svg"><clipPath id="p.0"><path d="m0 0l960.0 0l0 960.0l-960.0 0l0 -960.0z" clip-rule="nonzero"/></clipPath><g clip-path="url(#p.0)"><path fill="#212121" d="m0 0l960.0 0l0 960.0l-960.0 0z" fill-rule="evenodd"/><g filter="url(#shadowFilter-p.1)"><use xlink:href="#p.1" transform="matrix(1.0 0.0 0.0 1.0 -7.071067716535432 7.071067716535382)"/></g><defs><filter id="shadowFilter-p.1" filterUnits="userSpaceOnUse"><feGaussianBlur in="SourceAlpha" stdDeviation="0.0" result="blur"/><feComponentTransfer in="blur" color-interpolation-filters="sRGB"><feFuncR type="linear" slope="0" intercept="0.40392157"/><feFuncG type="linear" slope="0" intercept="0.30588236"/><feFuncB type="linear" slope="0" intercept="0.654902"/><feFuncA type="linear" slope="1.0" intercept="0"/></feComponentTransfer></filter></defs><g id="p.1"><path fill="#000000" fill-opacity="0.0" d="m0 211.74803l960.0 0l0 536.5039l-960.0 0z" fill-rule="evenodd"/><path fill="#4dd0e1" d="m217.38086 375.09488q-10.734375 50.453125 -74.484375 50.453125l-87.890625 0q-4.5 0 -7.15625 -3.359375q-2.640625 -3.375 -1.71875 -7.765625l29.296875 -137.79688q0.828125 -3.875 4.09375 -6.578125q3.28125 -2.703125 7.21875 -2.703125l85.765625 0q32.0 0 45.65625 12.421875q13.65625 12.421875 8.40625 37.109375l-0.140625 0.640625q-2.4375 11.484375 -10.390625 19.609375q-7.9375 8.125 -9.71875 6.203125q4.0 -1.15625 8.859375 9.03125q4.859375 10.171875 2.203125 22.734375zm-96.84375 -7.140625l-2.546875 12.03125l25.453125 0q3.0 0 5.0625 -2.171875q2.078125 -2.171875 2.671875 -4.984375l0.046875 -0.21875q0.46875 -2.1875 -0.375 -3.421875q-0.828125 -1.234375 -2.96875 -1.234375l-27.34375 0zm36.734375 -46.4375q1.828125 -1.953125 2.328125 -4.328125q0.515625 -2.390625 -0.046875 -3.328125q-0.5625 -0.953125 -2.3125 -0.953125l-25.0 0l-2.234375 10.546875l23.109375 0q2.34375 0 4.15625 -1.9375zm157.42267 51.421875l67.25 0q4.53125 0 7.15625 3.375q2.640625 3.375 1.734375 7.734375l-6.859375 32.21875q-0.828125 3.875 -4.109375 6.578125q-3.265625 2.703125 -7.21875 2.703125l-124.57814 0q-4.484375 0 -7.15625 -3.359375q-2.671875 -3.359375 -1.734375 -7.765625l29.29689 -137.79688q0.828125 -3.875 4.109375 -6.578125q3.28125 -2.703125 7.21875 -2.703125l46.078125 0q4.484375 0 7.15625 3.359375q2.671875 3.359375 1.734375 7.765625l-20.078125 94.46875zm259.8133 -52.984375l-35.03125 0l-11.25 52.984375l33.140625 0q4.515625 0 7.140625 3.375q2.640625 3.375 1.734375 7.734375l-6.859375 32.21875q-0.828125 3.875 -4.109375 6.578125q-3.265625 2.703125 -7.203125 2.703125l-135.25003 0q-4.515625 0 -7.171875 -3.359375q-2.640625 -3.375 -1.71875 -7.765625l6.859375 -32.1875q0.796875 -3.859375 4.078125 -6.578125q3.296875 -2.71875 7.25 -2.71875l35.4375 0l11.25 -52.984375l-33.546875 0q-4.53125 0 -7.171875 -3.375q-2.625 -3.390625 -1.703125 -7.75l6.84375 -32.203125q0.828125 -3.875 4.09375 -6.578125q3.28125 -2.703125 7.234375 -2.703125l135.25003 0q4.5 0 7.140625 3.375q2.65625 3.359375 1.734375 7.75l-6.84375 32.203125q-0.828125 3.859375 -4.109375 6.578125q-3.28125 2.703125 -7.21875 2.703125zm49.391357 -52.609375l147.20312 0q4.5 0 7.140625 3.375q2.65625 3.359375 1.734375 7.75l-7.296875 34.34375q-0.828125 3.859375 -4.109375 6.5625q-3.265625 2.703125 -7.203125 2.703125l-42.28125 0l-20.03125 94.1875q-0.828125 3.875 -4.109375 6.578125q-3.265625 2.703125 -7.203125 2.703125l-43.953125 0q-4.5 0 -7.15625 -3.359375q-2.640625 -3.375 -1.71875 -7.765625l19.640625 -92.34375l-40.390625 0q-4.5 0 -7.15625 -3.359375q-2.65625 -3.375 -1.71875 -7.75l7.296875 -34.34375q0.828125 -3.875 4.09375 -6.578125q3.28125 -2.703125 7.21875 -2.703125zm301.1883 105.59375q4.515625 0 7.140625 3.375q2.640625 3.375 1.734375 7.734375l-6.859375 32.21875q-0.828125 3.875 -4.109375 6.578125q-3.265625 2.703125 -7.203125 2.703125l-136.95312 0q-4.515625 0 -7.171875 -3.359375q-2.640625 -3.375 -1.71875 -7.765625l6.53125 -30.71875q1.421875 -6.640625 6.53125 -10.140625l70.015625 -53.609375l-47.28125 0q-4.515625 0 -7.15625 -3.375q-2.625 -3.390625 -1.703125 -7.75l6.84375 -32.203125q0.828125 -3.875 4.09375 -6.578125q3.28125 -2.703125 7.21875 -2.703125l128.0 0q4.484375 0 7.15625 3.359375q2.671875 3.359375 1.734375 7.765625l-6.484375 30.5q-1.296875 6.09375 -5.90625 9.625l-69.625 54.34375l55.171875 0z" fill-rule="nonzero"/><path fill="#8e7cc3" d="m216.6547 586.29803l-7.265625 34.140625q-1.34375 6.328125 2.0 9.546875q3.34375 3.21875 11.3125 3.21875q7.96875 0 11.953125 -2.421875q4.0 -2.421875 8.5 -8.734375q4.5 -6.328125 11.484375 -6.328125l46.078125 0q4.078125 0 6.46875 3.046875q2.390625 3.046875 1.5625 7.0q-4.578125 21.484375 -28.1875 38.921875q-11.75 8.5625 -29.0625 13.78125q-17.3125 5.21875 -39.203125 5.21875q-21.875 0 -39.03125 -6.96875q-17.15625 -6.984375 -25.640625 -23.234375q-8.46875 -16.265625 -3.5625 -39.375l5.359375 -25.171875q4.84375 -22.765625 19.75 -38.609375q27.703125 -29.125 77.609375 -29.125q20.15625 0 35.53125 5.3125q15.375 5.3125 23.796875 14.234375q16.84375 18.125 12.15625 40.21875q-0.734375 3.4375 -3.625 5.828125q-2.875 2.375 -6.390625 2.375l-46.078125 0q-8.046875 0 -9.96875 -6.6875q-1.921875 -6.703125 -4.421875 -8.75q-2.5 -2.046875 -10.515625 -2.046875q-8.0 0 -13.5625 3.796875q-5.5625 3.796875 -7.046875 10.8125zm279.4539 4.0625l-5.53125 26.015625q-4.9375 23.1875 -19.546875 38.78125q-14.59375 15.578125 -34.0625 22.0625q-19.46875 6.46875 -43.703125 6.46875q-24.234375 0 -41.390625 -6.640625q-17.140625 -6.640625 -25.421875 -22.8125q-8.265625 -16.171875 -3.1875 -40.125l5.359375 -25.171875q7.234375 -34.0625 34.046875 -50.890625q26.828125 -16.84375 63.484375 -16.84375q36.65625 0 56.953125 17.390625q20.296875 17.390625 13.0 51.765625zm-100.25 -4.0625l-7.265625 34.140625q-1.34375 6.328125 2.0 9.546875q3.34375 3.21875 11.765625 3.21875q8.4375 0 14.03125 -3.890625q5.59375 -3.90625 7.078125 -10.9375l7.171875 -33.703125q1.359375 -6.375 -1.984375 -9.671875q-3.34375 -3.3125 -11.765625 -3.3125q-8.421875 0 -13.984375 3.796875q-5.5625 3.796875 -7.046875 10.8125zm142.28204 -62.953125l68.0625 0q24.28125 0 41.421875 6.640625q17.140625 6.640625 25.421875 22.8125q8.296875 16.171875 3.296875 39.6875l-4.625 21.765625q-7.671875 36.03125 -35.6875 52.609375q-25.171875 14.6875 -61.5625 14.6875l-68.0625 0q-4.5 0 -7.15625 -3.359375q-2.640625 -3.375 -1.71875 -7.765625l29.296875 -137.79688q0.828125 -3.875 4.09375 -6.578125q3.28125 -2.703125 7.21875 -2.703125zm44.46875 50.46875l-12.171875 57.265625l13.9375 0q8.640625 0 14.21875 -3.90625q5.59375 -3.90625 7.078125 -10.921875l6.265625 -29.453125q1.359375 -6.375 -1.96875 -9.671875q-3.328125 -3.3125 -11.53125 -3.3125l-15.828125 0zm172.15698 57.265625l79.625 0q4.5 0 7.140625 3.359375q2.65625 3.359375 1.75 7.734375l-6.40625 30.09375q-0.828125 3.875 -4.109375 6.578125q-3.28125 2.703125 -7.21875 2.703125l-134.82812 0q-4.5 0 -7.15625 -3.359375q-2.640625 -3.375 -1.71875 -7.765625l29.296875 -137.79688q0.828125 -3.875 4.09375 -6.578125q3.28125 -2.703125 7.21875 -2.703125l132.70312 0q4.5 0 7.140625 3.375q2.65625 3.359375 1.734375 7.75l-6.390625 30.078125q-0.828125 3.859375 -4.109375 6.5625q-3.265625 2.703125 -7.203125 2.703125l-79.390625 0l-0.96875 4.5625l65.765625 0q4.515625 0 7.140625 3.390625q2.640625 3.375 1.71875 7.734375l-5.890625 27.734375q-0.828125 3.859375 -4.109375 6.578125q-3.265625 2.703125 -7.203125 2.703125l-67.65625 0l-0.96875 4.5625z" fill-rule="nonzero"/></g></g></svg>